<svg width="836" height="836" viewBox="0 0 836 836" fill="none" xmlns="http://www.w3.org/2000/svg">
<path fill-rule="evenodd" clip-rule="evenodd" d="M540.611 182.131L277.111 443.131L272.889 438.869L536.389 177.869L540.611 182.131Z" fill="#050704"/>
<path fill-rule="evenodd" clip-rule="evenodd" d="M292.058 182.131L555.558 443.131L559.781 438.869L296.281 177.869L292.058 182.131Z" fill="#050704"/>
<path fill-rule="evenodd" clip-rule="evenodd" d="M167.059 313.913L222.002 607.979L227.9 606.877L172.957 312.811L167.059 313.913Z" fill="#050704"/>
<path fill-rule="evenodd" clip-rule="evenodd" d="M665.603 313.306L611.036 607.974L605.136 606.882L659.703 312.213L665.603 313.306Z" fill="#050704"/>
<path fill-rule="evenodd" clip-rule="evenodd" d="M415.937 750.126C572.268 750.126 699 623.394 699 467.063C699 310.732 572.268 184 415.937 184C259.606 184 132.874 310.732 132.874 467.063C132.874 623.394 259.606 750.126 415.937 750.126ZM415.937 772.126C584.419 772.126 721 635.545 721 467.063C721 298.581 584.419 162 415.937 162C247.455 162 110.874 298.581 110.874 467.063C110.874 635.545 247.455 772.126 415.937 772.126Z" fill="#050704"/>
<path d="M443.273 574.67C443.273 589.456 431.286 601.443 416.5 601.443C401.713 601.443 389.726 589.456 389.726 574.67C389.726 559.883 401.713 547.896 416.5 547.896C431.286 547.896 443.273 559.883 443.273 574.67Z" fill="#050704"/>
<path fill-rule="evenodd" clip-rule="evenodd" d="M416.5 772.126C525.552 772.126 613.956 683.722 613.956 574.67C613.956 465.618 525.552 377.213 416.5 377.213C307.447 377.213 219.043 465.618 219.043 574.67C219.043 683.722 307.447 772.126 416.5 772.126ZM416.5 671.895C470.196 671.895 513.725 628.366 513.725 574.67C513.725 520.974 470.196 477.444 416.5 477.444C362.803 477.444 319.274 520.974 319.274 574.67C319.274 628.366 362.803 671.895 416.5 671.895ZM319.029 461.326C320.705 459.887 320.897 457.362 319.458 455.686C318.019 454.01 315.494 453.817 313.818 455.256C279.912 484.367 258.424 527.556 258.424 575.76C258.424 623.886 279.843 667.014 313.655 696.123C315.329 697.564 317.855 697.376 319.296 695.701C320.737 694.027 320.549 691.502 318.875 690.06C286.753 662.407 266.424 621.459 266.424 575.76C266.424 529.987 286.818 488.981 319.029 461.326ZM513.665 454.682C515.086 452.992 517.61 452.773 519.3 454.195C553.927 483.312 575.943 526.966 575.943 575.76C575.943 623.886 554.524 667.014 520.712 696.123C519.038 697.564 516.512 697.376 515.071 695.701C513.63 694.027 513.819 691.502 515.493 690.06C547.615 662.407 567.943 621.459 567.943 575.76C567.943 529.428 547.048 487.98 514.152 460.318C512.461 458.896 512.243 456.373 513.665 454.682Z" fill="#050704"/>
<path fill-rule="evenodd" clip-rule="evenodd" d="M251.082 141.641L253.872 133.977C252.781 133.603 251.681 133.245 250.571 132.904C248.939 132.402 247.288 131.936 245.617 131.508C243.946 131.08 242.275 130.693 240.603 130.348C239.466 130.113 238.329 129.897 237.193 129.701L235.951 137.762L233.974 137.457C232.836 137.282 231.699 137.127 230.563 136.992C226.449 136.504 222.349 136.28 218.284 136.308C217.264 136.316 216.246 136.339 215.231 136.377C215.101 136.382 214.972 136.388 214.843 136.393L212.845 136.477L212.501 128.328C211.34 128.399 210.182 128.489 209.028 128.597C205.602 128.919 202.208 129.406 198.857 130.052C197.716 130.272 196.579 130.511 195.448 130.767L197.401 138.687L195.459 139.165C194.343 139.441 193.233 139.735 192.13 140.049C188.174 141.172 184.301 142.539 180.532 144.137C180.104 144.319 179.677 144.503 179.252 144.691C178.626 144.966 178.004 145.248 177.385 145.537L175.572 146.381L172.129 138.986C171.089 139.495 170.056 140.02 169.033 140.561C166.001 142.165 163.046 143.914 160.181 145.8C159.214 146.437 158.257 147.089 157.311 147.757L162.136 154.333L160.524 155.516C159.599 156.195 158.685 156.89 157.783 157.602C154.569 160.137 151.507 162.874 148.619 165.801C147.924 166.505 147.24 167.219 146.566 167.945C146.458 168.061 146.35 168.178 146.243 168.295L144.888 169.767L138.886 164.244C138.117 165.112 137.361 165.994 136.618 166.889C134.44 169.516 132.38 172.256 130.449 175.105C129.799 176.065 129.163 177.036 128.542 178.02L135.521 182.242L134.486 183.954C133.893 184.933 133.316 185.926 132.756 186.93C130.775 190.48 128.999 194.181 127.447 198.023C127.057 198.989 126.681 199.964 126.319 200.948L124.442 200.258C124.811 199.254 125.195 198.26 125.593 197.274C127.176 193.354 128.988 189.577 131.009 185.955C131.581 184.931 132.169 183.919 132.773 182.92C132.774 182.919 132.774 182.919 132.774 182.918L125.779 178.687C126.125 178.115 126.475 177.548 126.831 176.985C127.469 175.972 128.124 174.971 128.794 173.983C130.761 171.081 132.86 168.288 135.079 165.612C135.843 164.691 136.622 163.783 137.414 162.89C137.856 162.391 138.303 161.896 138.754 161.405L144.771 166.941C144.772 166.94 144.772 166.939 144.773 166.938C144.882 166.82 144.992 166.702 145.101 166.584C145.789 165.844 146.487 165.114 147.195 164.397C150.142 161.41 153.266 158.617 156.544 156.031C157.464 155.306 158.397 154.596 159.341 153.903L154.504 147.313C155.042 146.918 155.583 146.529 156.127 146.144C157.101 145.457 158.086 144.785 159.081 144.13C162 142.208 165.009 140.427 168.098 138.793C169.151 138.236 170.214 137.696 171.285 137.173C171.882 136.882 172.482 136.596 173.084 136.315L173.09 136.312L176.541 143.723C177.172 143.429 177.807 143.142 178.445 142.86C178.879 142.669 179.315 142.481 179.752 142.296C183.596 140.666 187.547 139.271 191.583 138.125C192.708 137.805 193.839 137.505 194.976 137.225C194.978 137.224 194.979 137.224 194.98 137.224L193.022 129.286L193.026 129.285C193.029 129.285 193.031 129.284 193.033 129.284C193.677 129.125 194.322 128.972 194.969 128.825C196.133 128.561 197.303 128.315 198.479 128.088C201.892 127.43 205.35 126.934 208.841 126.606C210.029 126.494 211.221 126.402 212.417 126.329C213.082 126.289 213.748 126.255 214.415 126.227L214.759 134.395C214.759 134.395 214.758 134.395 214.759 134.395C214.89 134.389 215.023 134.384 215.155 134.379C216.191 134.339 217.229 134.316 218.27 134.309C222.418 134.279 226.601 134.508 230.799 135.006C231.958 135.144 233.118 135.302 234.278 135.481L235.524 127.401L235.535 127.403C236.189 127.503 236.843 127.61 237.497 127.724C238.667 127.926 239.837 128.148 241.007 128.389C242.71 128.741 244.413 129.134 246.114 129.571C247.815 130.007 249.497 130.481 251.159 130.992C252.301 131.343 253.433 131.712 254.556 132.097C255.186 132.314 255.814 132.536 256.438 132.763C256.438 132.763 256.438 132.763 256.438 132.763L256.442 132.764L253.646 140.446C253.744 140.482 253.842 140.518 253.94 140.554C254.944 140.923 255.939 141.306 256.924 141.704C260.844 143.288 264.621 145.1 268.243 147.121C269.267 147.693 270.279 148.281 271.278 148.885C271.279 148.886 271.279 148.886 271.28 148.886L275.512 141.891L275.517 141.895C275.523 141.898 275.529 141.902 275.535 141.905C276.098 142.246 276.658 142.592 277.213 142.942C278.227 143.581 279.227 144.236 280.215 144.905C283.118 146.873 285.91 148.971 288.586 151.191C289.507 151.955 290.415 152.733 291.308 153.526C291.805 153.965 292.296 154.41 292.784 154.858L292.793 154.866L287.257 160.882C287.258 160.883 287.259 160.884 287.26 160.885C287.378 160.994 287.497 161.103 287.615 161.213C288.355 161.9 289.084 162.598 289.802 163.307C292.788 166.254 295.581 169.377 298.167 172.656C298.893 173.576 299.602 174.508 300.295 175.452L306.885 170.616C306.885 170.616 306.885 170.616 306.885 170.616C307.28 171.153 307.67 171.695 308.054 172.239C308.742 173.213 309.413 174.197 310.068 175.193C311.99 178.111 313.771 181.121 315.405 184.21C315.962 185.263 316.502 186.325 317.025 187.397C317.316 187.992 317.601 188.589 317.88 189.19C317.882 189.194 317.884 189.198 317.886 189.202L310.475 192.652C310.769 193.284 311.057 193.919 311.338 194.557L309.508 195.364C309.232 194.738 308.95 194.116 308.662 193.497L307.818 191.683L315.212 188.241C314.704 187.2 314.179 186.168 313.637 185.145C312.033 182.112 310.284 179.158 308.398 176.292C307.761 175.325 307.109 174.369 306.441 173.422L299.866 178.248L298.682 176.636C298.003 175.71 297.308 174.796 296.596 173.894C294.062 170.681 291.324 167.619 288.397 164.73C287.693 164.036 286.979 163.352 286.253 162.678C286.137 162.57 286.02 162.462 285.903 162.354L284.431 161L289.954 154.998C289.086 154.228 288.204 153.472 287.309 152.73C284.682 150.552 281.942 148.492 279.093 146.561C278.134 145.91 277.162 145.275 276.178 144.654L271.956 151.633L270.245 150.597C269.265 150.005 268.273 149.428 267.268 148.867C263.719 146.887 260.017 145.111 256.175 143.559C255.209 143.169 254.234 142.793 253.25 142.431C253.154 142.396 253.058 142.36 252.961 142.325L251.082 141.641ZM316.974 211.089C316.693 209.951 316.393 208.82 316.073 207.695C314.927 203.659 313.533 199.708 311.902 195.863C311.717 195.427 311.529 194.991 311.338 194.557L309.508 195.364C309.695 195.789 309.88 196.216 310.061 196.644C311.659 200.413 313.026 204.286 314.15 208.241C314.463 209.345 314.757 210.455 315.033 211.571L315.512 213.513L323.431 211.559C323.688 212.691 323.926 213.827 324.146 214.969C324.792 218.32 325.279 221.713 325.601 225.14C325.71 226.294 325.799 227.452 325.87 228.613L317.721 228.956L317.805 230.955C317.811 231.084 317.816 231.213 317.821 231.342C317.86 232.358 317.883 233.376 317.89 234.396C317.918 238.461 317.694 242.56 317.206 246.675C317.071 247.811 316.916 248.948 316.741 250.086L316.436 252.062L324.498 253.305C324.301 254.441 324.085 255.578 323.85 256.714C323.505 258.386 323.119 260.058 322.69 261.729C322.262 263.4 321.796 265.051 321.295 266.683C320.953 267.792 320.596 268.893 320.221 269.984L312.557 267.194L311.873 269.073C311.838 269.169 311.802 269.266 311.767 269.362C311.406 270.346 311.03 271.321 310.639 272.287C309.088 276.129 307.312 279.83 305.331 283.38C304.77 284.384 304.194 285.376 303.601 286.356L302.566 288.067L309.544 292.29C308.924 293.273 308.288 294.245 307.637 295.205C305.706 298.053 303.646 300.794 301.468 303.421C300.726 304.316 299.97 305.198 299.201 306.066L293.198 300.543L291.844 302.015C291.736 302.132 291.628 302.249 291.52 302.365C290.846 303.09 290.162 303.805 289.468 304.509C286.58 307.436 283.518 310.173 280.304 312.708C279.402 313.42 278.488 314.115 277.562 314.794L275.95 315.977L280.776 322.553C279.83 323.221 278.873 323.873 277.906 324.51C275.04 326.396 272.086 328.145 269.053 329.749C268.03 330.29 266.998 330.815 265.957 331.324L262.515 323.929L260.702 324.773C260.082 325.062 259.46 325.344 258.835 325.619C258.409 325.807 257.982 325.991 257.554 326.173C253.786 327.771 249.913 329.138 245.957 330.261C244.853 330.575 243.743 330.869 242.627 331.144L240.686 331.623L242.639 339.543C241.508 339.799 240.371 340.038 239.229 340.258C235.878 340.904 232.485 341.391 229.059 341.713C227.904 341.821 226.746 341.911 225.585 341.982L225.242 333.833L223.243 333.917C223.114 333.922 222.985 333.927 222.856 333.932C221.84 333.971 220.822 333.994 219.802 334.001C215.737 334.03 211.638 333.806 207.523 333.318C206.387 333.183 205.25 333.028 204.113 332.853L202.136 332.548L200.894 340.609C199.757 340.413 198.621 340.197 197.484 339.962C195.812 339.617 194.14 339.23 192.469 338.802C190.799 338.374 189.147 337.908 187.515 337.406C186.406 337.065 185.306 336.707 184.215 336.333L187.004 328.668L185.125 327.984C185.029 327.949 184.933 327.914 184.836 327.879C183.853 327.517 182.877 327.141 181.911 326.751C178.069 325.199 174.368 323.423 170.818 321.442C169.814 320.882 168.822 320.305 167.842 319.713L166.131 318.677L161.909 325.656C160.925 325.035 159.953 324.399 158.993 323.749C156.145 321.818 153.404 319.758 150.777 317.58C149.882 316.838 149.001 316.082 148.132 315.312L153.655 309.31L152.183 307.956C152.066 307.848 151.95 307.74 151.833 307.632C151.108 306.958 150.393 306.274 149.689 305.579C146.762 302.691 144.025 299.629 141.49 296.415C140.779 295.513 140.083 294.6 139.404 293.674L138.221 292.062L131.645 296.887C130.977 295.941 130.325 294.984 129.689 294.018C127.802 291.152 126.053 288.198 124.449 285.165C123.908 284.142 123.383 283.11 122.875 282.069L130.269 278.626L129.425 276.813C129.136 276.194 128.855 275.572 128.579 274.946C128.391 274.521 128.207 274.094 128.025 273.666C126.428 269.897 125.06 266.024 123.937 262.069C123.623 260.965 123.329 259.855 123.054 258.739L122.575 256.797L114.656 258.751C114.399 257.619 114.16 256.483 113.94 255.341C113.295 251.99 112.807 248.596 112.485 245.17C112.377 244.016 112.287 242.858 112.216 241.697L120.366 241.354L120.281 239.355C120.276 239.226 120.271 239.097 120.266 238.967C120.227 237.952 120.204 236.934 120.197 235.914C120.168 231.849 120.392 227.75 120.881 223.635C121.015 222.499 121.17 221.362 121.346 220.224L121.65 218.248L113.589 217.005C113.786 215.869 114.001 214.732 114.236 213.596C114.581 211.924 114.968 210.252 115.396 208.581C115.824 206.91 116.29 205.259 116.792 203.627C117.133 202.518 117.491 201.417 117.865 200.326L125.53 203.116L126.214 201.237C126.249 201.14 126.284 201.044 126.319 200.948L124.442 200.258C124.429 200.294 124.416 200.329 124.403 200.364C124.38 200.427 124.357 200.49 124.334 200.553L116.652 197.757C116.652 197.757 116.652 197.757 116.652 197.757C116.425 198.382 116.202 199.011 115.985 199.642C115.6 200.765 115.231 201.897 114.88 203.039C114.369 204.701 113.895 206.383 113.459 208.084C113.023 209.786 112.629 211.488 112.277 213.191C112.036 214.361 111.814 215.531 111.612 216.701C111.498 217.359 111.391 218.017 111.289 218.675L119.369 219.92C119.19 221.081 119.032 222.241 118.894 223.4C118.396 227.597 118.168 231.78 118.197 235.928C118.204 236.969 118.228 238.008 118.267 239.044C118.272 239.175 118.278 239.307 118.283 239.438C118.283 239.439 118.283 239.439 118.283 239.439L110.115 239.784C110.115 239.784 110.115 239.784 110.115 239.784C110.143 240.45 110.177 241.116 110.218 241.781C110.29 242.977 110.382 244.169 110.494 245.357C110.822 248.848 111.319 252.306 111.977 255.719C112.203 256.895 112.449 258.065 112.713 259.23C112.861 259.88 113.015 260.529 113.175 261.176L121.112 259.218C121.112 259.219 121.113 259.22 121.113 259.221C121.393 260.359 121.694 261.49 122.013 262.615C123.159 266.651 124.554 270.602 126.184 274.447C126.369 274.883 126.557 275.319 126.749 275.753C127.03 276.391 127.318 277.026 127.612 277.657L120.201 281.108L120.204 281.115C120.484 281.717 120.77 282.317 121.061 282.913C121.584 283.985 122.124 285.047 122.681 286.1C124.315 289.189 126.097 292.199 128.018 295.117C128.673 296.113 129.345 297.097 130.033 298.071C130.417 298.615 130.806 299.156 131.201 299.694C131.201 299.694 131.201 299.694 131.201 299.694L137.792 294.857C138.485 295.801 139.194 296.734 139.92 297.654C142.506 300.933 145.298 304.056 148.285 307.003C149.003 307.711 149.732 308.41 150.472 309.097C150.591 309.208 150.71 309.318 150.829 309.427L145.294 315.444L145.302 315.452C145.304 315.453 145.305 315.454 145.306 315.455C145.792 315.902 146.283 316.345 146.778 316.784C147.672 317.577 148.579 318.355 149.501 319.119C152.177 321.338 154.969 323.437 157.871 325.404C158.859 326.074 159.86 326.729 160.873 327.368C161.437 327.723 162.004 328.073 162.575 328.419L166.807 321.424C166.806 321.424 166.807 321.424 166.807 321.424C167.806 322.028 168.819 322.617 169.844 323.189C173.466 325.21 177.243 327.022 181.162 328.605C182.148 329.004 183.143 329.387 184.146 329.756C184.242 329.791 184.337 329.826 184.433 329.861C184.436 329.862 184.438 329.863 184.441 329.864L181.645 337.546L181.656 337.55C182.278 337.776 182.903 337.997 183.531 338.213C184.653 338.598 185.786 338.967 186.927 339.318C188.589 339.829 190.271 340.303 191.973 340.739C193.674 341.176 195.377 341.569 197.079 341.921C198.249 342.162 199.419 342.384 200.589 342.586C201.247 342.7 201.904 342.808 202.562 342.909C202.562 342.909 202.562 342.909 202.562 342.909L203.808 334.829C204.969 335.008 206.129 335.166 207.288 335.304C211.486 335.802 215.668 336.03 219.816 336.001C220.857 335.994 221.896 335.971 222.932 335.931C223.06 335.926 223.188 335.921 223.315 335.916C223.319 335.915 223.324 335.915 223.328 335.915L223.672 344.083L223.678 344.083C223.683 344.083 223.687 344.083 223.692 344.082C224.352 344.055 225.011 344.021 225.669 343.981C226.865 343.908 228.057 343.816 229.246 343.704C232.737 343.376 236.194 342.88 239.608 342.222C240.783 341.995 241.953 341.749 243.118 341.485C243.768 341.337 244.417 341.183 245.064 341.024C245.064 341.024 245.064 341.024 245.064 341.024L243.106 333.086C243.107 333.086 243.108 333.086 243.109 333.086C244.247 332.805 245.378 332.505 246.503 332.185C250.539 331.039 254.49 329.644 258.335 328.014C258.772 327.829 259.207 327.641 259.641 327.449C260.279 327.168 260.914 326.881 261.546 326.587L264.996 333.998C264.996 333.998 264.996 333.998 264.996 333.998C265.601 333.716 266.203 333.429 266.802 333.137C267.873 332.614 268.935 332.074 269.989 331.517C273.077 329.883 276.087 328.102 279.006 326.18C280.001 325.525 280.986 324.853 281.959 324.166C282.504 323.781 283.044 323.392 283.582 322.998C283.582 322.998 283.582 322.997 283.582 322.998L278.746 316.406C279.69 315.714 280.622 315.004 281.542 314.279C284.821 311.693 287.945 308.9 290.891 305.913C291.6 305.196 292.298 304.466 292.985 303.726C293.095 303.608 293.205 303.49 293.314 303.371C293.314 303.371 293.315 303.37 293.316 303.369L299.332 308.904C299.332 308.905 299.332 308.904 299.332 308.904C299.783 308.414 300.23 307.919 300.673 307.42C301.465 306.527 302.243 305.619 303.008 304.698C305.227 302.022 307.325 299.229 309.293 296.327C309.962 295.339 310.617 294.338 311.256 293.325C311.611 292.762 311.962 292.194 312.307 291.623L305.312 287.392C305.312 287.392 305.312 287.391 305.312 287.392C305.917 286.392 306.505 285.379 307.077 284.355C309.098 280.732 310.911 276.956 312.494 273.036C312.892 272.05 313.276 271.055 313.644 270.052C313.68 269.954 313.716 269.856 313.752 269.757L321.434 272.553C321.662 271.928 321.884 271.299 322.101 270.668C322.487 269.545 322.855 268.413 323.206 267.271C323.717 265.609 324.191 263.927 324.628 262.226C325.064 260.524 325.457 258.822 325.809 257.119C326.051 255.949 326.272 254.779 326.475 253.609C326.588 252.955 326.695 252.301 326.796 251.647L326.797 251.635L318.718 250.39C318.896 249.229 319.055 248.069 319.192 246.91C319.69 242.713 319.919 238.53 319.89 234.382C319.882 233.341 319.859 232.302 319.819 231.266C319.814 231.138 319.809 231.01 319.804 230.882C319.804 230.878 319.804 230.874 319.803 230.87L327.972 230.526C327.972 230.526 327.972 230.526 327.972 230.526C327.944 229.86 327.909 229.193 327.869 228.529C327.796 227.333 327.704 226.141 327.592 224.952C327.264 221.462 326.768 218.004 326.11 214.59C325.883 213.415 325.638 212.245 325.373 211.08C325.225 210.43 325.072 209.781 324.912 209.134L316.975 211.092C316.974 211.091 316.974 211.09 316.974 211.089ZM198.441 152.854L197.953 150.914C198.08 150.882 198.207 150.851 198.334 150.819C203.863 149.457 209.559 148.631 215.348 148.387C215.472 148.381 215.596 148.376 215.719 148.372C221.016 148.171 226.388 148.457 231.778 149.263C231.901 149.281 232.023 149.3 232.146 149.318C234.964 149.752 237.787 150.328 240.607 151.051C243.426 151.774 246.178 152.627 248.857 153.603L248.173 155.482C245.555 154.529 242.866 153.695 240.11 152.988C237.354 152.281 234.595 151.719 231.841 151.295C231.722 151.277 231.602 151.259 231.483 151.241C226.216 150.453 220.968 150.174 215.795 150.37C215.674 150.375 215.553 150.38 215.432 150.385C209.778 150.624 204.214 151.43 198.813 152.761C198.689 152.792 198.565 152.823 198.441 152.854ZM248.513 155.607L249.206 153.731C249.152 153.711 249.098 153.691 249.044 153.671C248.982 153.648 248.92 153.626 248.857 153.603L248.173 155.482C248.286 155.524 248.4 155.565 248.513 155.607ZM296.13 199.754L297.947 198.918C297.893 198.799 297.838 198.681 297.783 198.562C295.354 193.344 292.413 188.375 289.008 183.736C288.93 183.63 288.852 183.525 288.775 183.42C285.593 179.126 282.01 175.116 278.064 171.453C277.968 171.364 277.872 171.276 277.776 171.187C273.585 167.333 268.988 163.868 264.031 160.868C264.004 160.852 263.977 160.836 263.95 160.819C263.871 160.772 263.792 160.724 263.713 160.677C259.166 157.952 254.319 155.618 249.206 153.731L248.513 155.607C253.509 157.451 258.244 159.731 262.685 162.392C262.788 162.454 262.892 162.517 262.996 162.579C267.838 165.51 272.328 168.894 276.422 172.659C276.516 172.746 276.61 172.832 276.703 172.919C280.558 176.497 284.059 180.415 287.168 184.611C287.244 184.713 287.32 184.816 287.395 184.919C290.723 189.453 293.596 194.307 295.969 199.406C296.023 199.522 296.077 199.638 296.13 199.754ZM304.936 247.89C305.741 242.499 306.027 237.127 305.826 231.831C305.822 231.707 305.817 231.583 305.812 231.46C305.567 225.671 304.742 219.974 303.379 214.446C303.348 214.319 303.316 214.192 303.284 214.065C301.972 208.844 300.181 203.774 297.947 198.918L296.13 199.754C298.313 204.498 300.063 209.451 301.345 214.552C301.376 214.676 301.407 214.8 301.437 214.924C302.768 220.325 303.575 225.889 303.813 231.544C303.816 231.612 303.819 231.681 303.822 231.749C303.824 231.802 303.826 231.854 303.828 231.907C304.024 237.08 303.745 242.328 302.958 247.594C302.94 247.714 302.922 247.834 302.903 247.953C302.479 250.707 301.917 253.466 301.21 256.222C300.504 258.977 299.67 261.666 298.716 264.285C298.675 264.398 298.633 264.512 298.591 264.625C296.747 269.621 294.467 274.356 291.806 278.796C291.744 278.9 291.681 279.004 291.619 279.107C288.689 283.95 285.304 288.439 281.539 292.534C281.452 292.628 281.366 292.721 281.279 292.815C277.701 296.67 273.783 300.17 269.588 303.279C269.523 303.327 269.458 303.375 269.394 303.423C269.356 303.451 269.317 303.479 269.279 303.507C264.746 306.835 259.891 309.708 254.792 312.081C254.677 312.135 254.561 312.189 254.444 312.242C249.7 314.424 244.747 316.175 239.646 317.456C239.556 317.479 239.466 317.501 239.376 317.523C239.342 317.532 239.308 317.54 239.274 317.549C233.873 318.88 228.309 319.686 222.654 319.925C222.578 319.928 222.503 319.931 222.427 319.934C222.382 319.936 222.336 319.938 222.291 319.94C217.118 320.136 211.87 319.856 206.604 319.069C206.484 319.051 206.365 319.033 206.245 319.015C203.491 318.591 200.732 318.028 197.977 317.322C195.221 316.615 192.532 315.781 189.914 314.828C189.8 314.786 189.686 314.745 189.573 314.703C184.577 312.859 179.843 310.579 175.402 307.918C175.298 307.855 175.194 307.793 175.091 307.73C170.249 304.8 165.759 301.416 161.665 297.651C161.571 297.564 161.477 297.477 161.383 297.391C157.528 293.813 154.028 289.895 150.919 285.699C150.843 285.597 150.767 285.494 150.691 285.391C147.363 280.857 144.49 276.003 142.117 270.904C142.063 270.788 142.009 270.672 141.956 270.556C139.774 265.812 138.024 260.858 136.742 255.758C136.711 255.634 136.68 255.51 136.649 255.386C135.318 249.985 134.512 244.42 134.273 238.766C134.268 238.645 134.263 238.524 134.259 238.403C134.063 233.23 134.342 227.982 135.129 222.715C135.147 222.596 135.165 222.476 135.183 222.357C135.607 219.603 136.17 216.844 136.876 214.088C137.583 211.333 138.417 208.643 139.371 206.025C139.412 205.912 139.454 205.798 139.495 205.685C141.339 200.689 143.62 195.954 146.281 191.514C146.343 191.41 146.405 191.306 146.468 191.203C149.398 186.36 152.782 181.871 156.547 177.776C156.634 177.682 156.721 177.588 156.808 177.495C160.386 173.64 164.303 170.14 168.499 167.031C168.602 166.954 168.704 166.879 168.807 166.803C173.341 163.475 178.195 160.602 183.294 158.229C183.41 158.175 183.526 158.121 183.642 158.068C188.386 155.886 193.34 154.135 198.441 152.854L197.953 150.914C192.732 152.226 187.662 154.017 182.806 156.251C182.687 156.305 182.569 156.36 182.45 156.416C177.232 158.844 172.264 161.785 167.624 165.191C167.518 165.268 167.413 165.346 167.308 165.424C163.014 168.606 159.004 172.188 155.342 176.134C155.253 176.23 155.164 176.326 155.075 176.422C151.221 180.613 147.756 185.21 144.757 190.167C144.693 190.273 144.629 190.379 144.565 190.486C141.841 195.032 139.506 199.879 137.619 204.992C137.576 205.108 137.534 205.225 137.491 205.341C136.515 208.02 135.662 210.772 134.939 213.592C134.216 216.411 133.64 219.234 133.207 222.053C133.188 222.175 133.169 222.297 133.151 222.42C132.345 227.81 132.059 233.182 132.26 238.479C132.265 238.603 132.27 238.726 132.275 238.85C132.519 244.639 133.345 250.336 134.708 255.864C134.729 255.952 134.751 256.039 134.773 256.127C134.783 256.166 134.792 256.206 134.802 256.245C136.114 261.466 137.906 266.536 140.139 271.392C140.194 271.511 140.249 271.629 140.304 271.748C142.733 276.966 145.673 281.934 149.079 286.574C149.156 286.68 149.234 286.785 149.312 286.89C152.494 291.184 156.076 295.194 160.023 298.856C160.118 298.945 160.214 299.034 160.311 299.123C164.502 302.977 169.098 306.442 174.056 309.442C174.161 309.506 174.268 309.57 174.374 309.633C178.92 312.358 183.767 314.692 188.88 316.579C188.923 316.595 188.966 316.611 189.009 316.627C189.083 316.653 189.156 316.68 189.229 316.707C191.909 317.683 194.661 318.536 197.48 319.259C200.299 319.982 203.122 320.558 205.941 320.992C206.063 321.01 206.186 321.029 206.308 321.047C211.699 321.853 217.071 322.139 222.367 321.938C222.491 321.933 222.615 321.929 222.738 321.923C228.528 321.679 234.224 320.853 239.752 319.491C239.879 319.459 240.006 319.428 240.133 319.396C245.355 318.084 250.425 316.293 255.28 314.059C255.399 314.005 255.518 313.95 255.636 313.894C260.855 311.466 265.823 308.525 270.463 305.119C270.499 305.092 270.536 305.066 270.572 305.039C270.641 304.988 270.71 304.937 270.778 304.886C275.072 301.704 279.082 298.122 282.745 294.176C282.789 294.128 282.833 294.081 282.876 294.034C282.921 293.985 282.966 293.936 283.011 293.888C286.866 289.697 290.33 285.1 293.33 280.143C293.394 280.037 293.458 279.931 293.521 279.824C296.246 275.278 298.58 270.431 300.467 265.318C300.51 265.202 300.553 265.085 300.595 264.969C301.571 262.289 302.425 259.538 303.148 256.718C303.87 253.899 304.446 251.076 304.88 248.257C304.899 248.135 304.917 248.013 304.936 247.89Z" fill="#050704"/>
<path fill-rule="evenodd" clip-rule="evenodd" d="M256.924 141.704C255.939 141.306 254.944 140.923 253.94 140.554C253.842 140.518 253.744 140.482 253.646 140.446L256.442 132.764C256.44 132.764 256.439 132.763 256.438 132.763C254.702 132.131 252.942 131.54 251.159 130.992C249.497 130.481 247.815 130.007 246.114 129.571C244.413 129.134 242.71 128.741 241.007 128.389C239.183 128.012 237.358 127.684 235.535 127.403C235.531 127.402 235.527 127.401 235.524 127.401L234.278 135.481C233.118 135.302 231.958 135.144 230.799 135.006C226.601 134.508 222.418 134.279 218.27 134.309C217.229 134.316 216.191 134.339 215.155 134.379C215.023 134.384 214.891 134.389 214.759 134.395L214.415 126.227C212.548 126.305 210.69 126.432 208.841 126.606C205.35 126.934 201.892 127.43 198.479 128.088C196.648 128.441 194.83 128.84 193.026 129.285C193.025 129.286 193.024 129.286 193.022 129.286L194.98 137.224C193.842 137.504 192.709 137.805 191.583 138.125C187.547 139.271 183.596 140.666 179.752 142.296C179.315 142.481 178.879 142.669 178.445 142.86C177.807 143.142 177.172 143.429 176.541 143.723L173.09 136.312C173.088 136.313 173.086 136.314 173.084 136.315C171.401 137.099 169.738 137.925 168.098 138.793C165.009 140.427 162 142.208 159.081 144.13C157.529 145.151 156.003 146.213 154.504 147.313L159.341 153.903C158.397 154.596 157.464 155.306 156.544 156.031C153.266 158.617 150.142 161.41 147.195 164.397C146.487 165.114 145.789 165.844 145.101 166.584C144.991 166.702 144.881 166.821 144.771 166.941L138.754 161.405C137.496 162.774 136.27 164.176 135.079 165.612C132.86 168.288 130.761 171.081 128.794 173.983C127.752 175.52 126.746 177.088 125.779 178.687L132.774 182.918C132.17 183.918 131.581 184.931 131.009 185.955C128.988 189.577 127.176 193.354 125.593 197.274C125.195 198.26 124.811 199.254 124.442 200.258C124.406 200.356 124.37 200.454 124.334 200.553L116.652 197.757C116.02 199.494 115.429 201.255 114.88 203.039C114.369 204.701 113.895 206.383 113.459 208.084C113.023 209.786 112.629 211.488 112.277 213.191C111.9 215.019 111.571 216.848 111.289 218.675L119.369 219.92C119.19 221.081 119.032 222.241 118.894 223.4C118.396 227.597 118.168 231.78 118.197 235.928C118.204 236.969 118.228 238.008 118.267 239.044C118.272 239.176 118.278 239.308 118.283 239.439L110.115 239.784C110.193 241.65 110.32 243.508 110.494 245.357C110.822 248.848 111.319 252.306 111.977 255.719C112.33 257.551 112.729 259.371 113.175 261.176L121.112 259.218C121.393 260.357 121.693 261.489 122.013 262.615C123.159 266.651 124.554 270.602 126.184 274.447C126.369 274.883 126.557 275.319 126.749 275.753C127.03 276.391 127.318 277.026 127.612 277.657L120.201 281.108C120.202 281.11 120.203 281.113 120.204 281.115C120.988 282.798 121.814 284.461 122.681 286.1C124.315 289.189 126.097 292.199 128.018 295.117C129.04 296.669 130.101 298.195 131.201 299.694L137.792 294.857C138.485 295.801 139.194 296.734 139.92 297.654C142.506 300.933 145.298 304.056 148.285 307.003C149.003 307.711 149.732 308.41 150.472 309.097C150.591 309.208 150.71 309.318 150.829 309.427L145.294 315.444C145.297 315.446 145.3 315.449 145.302 315.452C146.668 316.708 148.068 317.931 149.501 319.119C152.177 321.338 154.969 323.437 157.871 325.404C159.408 326.447 160.977 327.452 162.575 328.419L166.807 321.424C167.806 322.029 168.819 322.617 169.844 323.189C173.466 325.21 177.243 327.022 181.162 328.605C182.148 329.004 183.143 329.387 184.146 329.756C184.245 329.792 184.343 329.828 184.441 329.864L181.645 337.546C181.649 337.547 181.652 337.549 181.656 337.55C183.39 338.181 185.147 338.771 186.927 339.318C188.589 339.829 190.271 340.303 191.973 340.739C193.674 341.176 195.377 341.569 197.079 341.921C198.907 342.298 200.736 342.627 202.563 342.909L203.808 334.829C204.969 335.008 206.129 335.166 207.288 335.304C211.486 335.802 215.668 336.03 219.816 336.001C220.857 335.994 221.896 335.971 222.932 335.931C223.064 335.926 223.196 335.921 223.328 335.915L223.672 344.083C223.674 344.083 223.676 344.083 223.678 344.083C225.542 344.004 227.399 343.878 229.246 343.704C232.737 343.376 236.194 342.88 239.608 342.222C241.44 341.869 243.259 341.469 245.064 341.024L243.106 333.086C244.245 332.805 245.377 332.505 246.503 332.185C250.539 331.039 254.49 329.644 258.335 328.014C258.772 327.829 259.207 327.641 259.641 327.449C260.279 327.168 260.914 326.881 261.546 326.587L264.996 333.998C266.682 333.213 268.346 332.386 269.989 331.517C273.077 329.883 276.087 328.102 279.006 326.18C280.557 325.158 282.084 324.097 283.582 322.997L278.746 316.406C279.69 315.714 280.622 315.004 281.542 314.279C284.821 311.693 287.945 308.9 290.891 305.913C291.6 305.196 292.298 304.466 292.985 303.726C293.096 303.607 293.206 303.488 293.316 303.369L299.332 308.904C300.591 307.536 301.817 306.134 303.008 304.698C305.227 302.022 307.325 299.229 309.293 296.327C310.335 294.79 311.34 293.222 312.307 291.623L305.312 287.392C305.917 286.392 306.505 285.379 307.077 284.355C309.098 280.732 310.911 276.956 312.494 273.036C312.892 272.05 313.276 271.055 313.644 270.052C313.68 269.954 313.716 269.856 313.752 269.757L321.434 272.553C322.066 270.816 322.658 269.055 323.206 267.271C323.717 265.609 324.191 263.927 324.628 262.226C325.064 260.524 325.457 258.822 325.809 257.119C326.186 255.295 326.514 253.47 326.796 251.647C326.796 251.643 326.797 251.639 326.797 251.635L318.718 250.39C318.896 249.229 319.055 248.069 319.192 246.91C319.69 242.713 319.919 238.53 319.89 234.382C319.882 233.341 319.859 232.302 319.819 231.266C319.814 231.134 319.809 231.002 319.803 230.87L327.972 230.526C327.893 228.66 327.766 226.802 327.592 224.952C327.264 221.462 326.768 218.004 326.11 214.59C325.757 212.758 325.357 210.939 324.912 209.134L316.975 211.092C316.694 209.953 316.393 208.821 316.073 207.695C314.927 203.659 313.533 199.708 311.902 195.863C311.717 195.427 311.529 194.991 311.338 194.557C311.057 193.919 310.769 193.284 310.475 192.652L317.886 189.202C317.101 187.517 316.274 185.852 315.405 184.21C313.771 181.121 311.99 178.111 310.068 175.193C309.047 173.641 307.985 172.115 306.885 170.616L300.295 175.452C299.602 174.508 298.893 173.576 298.167 172.656C295.581 169.377 292.788 166.254 289.802 163.307C289.084 162.598 288.355 161.9 287.615 161.213C287.496 161.102 287.377 160.992 287.257 160.882L292.793 154.866C292.79 154.863 292.787 154.861 292.784 154.858C291.418 153.602 290.019 152.379 288.586 151.191C285.91 148.971 283.118 146.873 280.215 144.905C278.68 143.865 277.113 142.86 275.517 141.895C275.515 141.893 275.514 141.892 275.512 141.891L271.28 148.886C270.28 148.281 269.268 147.693 268.243 147.121C264.621 145.1 260.844 143.288 256.924 141.704ZM262.685 162.392C258.244 159.731 253.509 157.451 248.513 155.607C248.4 155.565 248.286 155.524 248.173 155.482C245.555 154.529 242.866 153.695 240.11 152.988C237.354 152.281 234.595 151.719 231.841 151.295C231.722 151.277 231.602 151.259 231.483 151.241C226.216 150.453 220.968 150.174 215.795 150.37C215.674 150.375 215.553 150.38 215.432 150.385C209.778 150.624 204.214 151.43 198.813 152.761C198.689 152.792 198.565 152.823 198.441 152.854C193.34 154.135 188.386 155.886 183.642 158.068C183.526 158.121 183.41 158.175 183.294 158.229C178.195 160.602 173.341 163.475 168.807 166.803C168.704 166.879 168.602 166.954 168.499 167.031C164.303 170.14 160.386 173.64 156.808 177.495C156.721 177.588 156.634 177.682 156.547 177.776C152.782 181.871 149.398 186.36 146.468 191.203C146.405 191.306 146.343 191.41 146.281 191.514C143.62 195.954 141.339 200.689 139.495 205.685C139.454 205.798 139.412 205.912 139.371 206.025C138.417 208.643 137.583 211.333 136.876 214.088C136.17 216.844 135.607 219.603 135.183 222.357C135.165 222.476 135.147 222.596 135.129 222.715C134.342 227.982 134.063 233.23 134.259 238.403C134.263 238.524 134.268 238.645 134.273 238.766C134.512 244.42 135.318 249.985 136.649 255.386C136.68 255.51 136.711 255.634 136.742 255.758C138.024 260.858 139.774 265.812 141.956 270.556C142.009 270.672 142.063 270.788 142.117 270.904C144.49 276.003 147.363 280.857 150.691 285.391C150.767 285.494 150.843 285.597 150.919 285.699C154.028 289.895 157.528 293.813 161.383 297.391C161.477 297.477 161.571 297.564 161.665 297.651C165.759 301.416 170.249 304.8 175.091 307.73C175.194 307.793 175.298 307.855 175.402 307.918C179.843 310.579 184.577 312.859 189.573 314.703C189.686 314.745 189.8 314.786 189.914 314.828C192.532 315.781 195.221 316.615 197.977 317.322C200.732 318.028 203.491 318.591 206.245 319.015C206.365 319.033 206.484 319.051 206.604 319.069C211.87 319.856 217.118 320.136 222.291 319.94C222.412 319.935 222.533 319.93 222.654 319.925C228.309 319.686 233.873 318.88 239.274 317.549C239.398 317.518 239.522 317.487 239.646 317.456C244.747 316.175 249.7 314.424 254.444 312.242C254.561 312.189 254.677 312.135 254.792 312.081C259.891 309.708 264.746 306.835 269.279 303.507C269.382 303.431 269.485 303.355 269.588 303.279C273.783 300.17 277.701 296.67 281.279 292.815C281.366 292.721 281.452 292.628 281.539 292.534C285.304 288.439 288.689 283.95 291.619 279.107C291.681 279.004 291.744 278.9 291.806 278.796C294.467 274.356 296.747 269.621 298.591 264.625C298.633 264.512 298.675 264.398 298.716 264.285C299.67 261.666 300.504 258.977 301.21 256.222C301.917 253.466 302.479 250.707 302.903 247.953C302.922 247.834 302.94 247.714 302.958 247.594C303.745 242.328 304.024 237.08 303.828 231.907C303.823 231.786 303.818 231.665 303.813 231.544C303.575 225.889 302.768 220.325 301.437 214.924C301.407 214.8 301.376 214.676 301.345 214.552C300.063 209.451 298.313 204.498 296.13 199.754C296.077 199.638 296.023 199.522 295.969 199.406C293.596 194.307 290.723 189.453 287.395 184.919C287.32 184.816 287.244 184.713 287.168 184.611C284.059 180.415 280.558 176.497 276.703 172.919C276.61 172.832 276.516 172.746 276.422 172.659C272.328 168.894 267.838 165.51 262.996 162.579C262.892 162.517 262.788 162.454 262.685 162.392Z" fill="#050704"/>
<circle cx="219.824" cy="235.155" r="36.8644" fill="#050704"/>
<path fill-rule="evenodd" clip-rule="evenodd" d="M645.995 141.641L648.784 133.977C647.694 133.603 646.593 133.245 645.484 132.904C643.852 132.402 642.201 131.936 640.53 131.508C638.859 131.08 637.187 130.693 635.515 130.348C634.379 130.113 633.242 129.897 632.105 129.701L630.863 137.762L628.887 137.457C627.749 137.282 626.612 137.127 625.476 136.992C621.361 136.504 617.262 136.28 613.197 136.308C612.177 136.316 611.159 136.339 610.144 136.377C610.014 136.382 609.885 136.388 609.756 136.393L607.757 136.477L607.414 128.328C606.253 128.399 605.095 128.489 603.941 128.597C600.514 128.919 597.121 129.406 593.77 130.052C592.628 130.272 591.492 130.511 590.36 130.767L592.314 138.687L590.372 139.165C589.256 139.441 588.146 139.735 587.042 140.049C583.087 141.172 579.214 142.539 575.445 144.137C575.017 144.319 574.59 144.503 574.165 144.691C573.539 144.966 572.917 145.248 572.298 145.537L570.484 146.381L567.042 138.986C566.001 139.495 564.969 140.02 563.946 140.561C560.913 142.165 557.959 143.914 555.093 145.8C554.126 146.437 553.17 147.089 552.223 147.757L557.049 154.333L555.437 155.516C554.511 156.195 553.597 156.89 552.695 157.602C549.482 160.137 546.42 162.874 543.531 165.801C542.837 166.505 542.153 167.219 541.479 167.945C541.371 168.061 541.263 168.178 541.155 168.295L539.801 169.767L533.799 164.244C533.029 165.112 532.273 165.994 531.531 166.889C529.353 169.516 527.293 172.256 525.362 175.105C524.711 176.065 524.076 177.036 523.455 178.02L530.434 182.242L529.398 183.954C528.806 184.933 528.229 185.926 527.668 186.93C525.688 190.48 523.912 194.181 522.36 198.023C521.97 198.989 521.594 199.964 521.232 200.948L519.355 200.258C519.724 199.254 520.107 198.26 520.505 197.274C522.089 193.354 523.901 189.577 525.922 185.955C526.493 184.931 527.082 183.919 527.686 182.92C527.686 182.919 527.687 182.919 527.687 182.918L520.692 178.687C521.038 178.115 521.388 177.548 521.743 176.985C522.382 175.972 523.037 174.971 523.706 173.983C525.674 171.081 527.772 168.288 529.992 165.612C530.756 164.691 531.534 163.783 532.327 162.89C532.769 162.391 533.216 161.896 533.667 161.405L539.683 166.941C539.684 166.94 539.685 166.939 539.686 166.938C539.795 166.82 539.904 166.702 540.014 166.584C540.701 165.844 541.399 165.114 542.108 164.397C545.055 161.41 548.178 158.617 551.457 156.031C552.377 155.306 553.309 154.596 554.253 153.903L549.417 147.313C549.954 146.918 550.495 146.529 551.04 146.144C552.014 145.457 552.998 144.785 553.994 144.13C556.912 142.208 559.922 140.427 563.011 138.793C564.064 138.236 565.126 137.696 566.198 137.173C566.795 136.882 567.394 136.596 567.997 136.315L568.003 136.312L571.453 143.723C572.085 143.429 572.72 143.142 573.358 142.86C573.792 142.669 574.228 142.481 574.664 142.296C578.509 140.666 582.46 139.271 586.496 138.125C587.621 137.805 588.752 137.505 589.889 137.225C589.89 137.224 589.892 137.224 589.893 137.224L587.935 129.286L587.939 129.285C587.941 129.285 587.944 129.284 587.946 129.284C588.589 129.125 589.234 128.972 589.881 128.825C591.046 128.561 592.216 128.315 593.391 128.088C596.805 127.43 600.263 126.934 603.753 126.606C604.942 126.494 606.134 126.402 607.33 126.329C607.995 126.289 608.66 126.255 609.327 126.227L609.671 134.395C609.672 134.395 609.671 134.395 609.671 134.395C609.803 134.389 609.936 134.384 610.067 134.379C611.103 134.339 612.142 134.316 613.183 134.309C617.331 134.279 621.514 134.508 625.711 135.006C626.87 135.144 628.03 135.302 629.191 135.481L630.436 127.401L630.447 127.403C631.102 127.503 631.756 127.61 632.41 127.724C633.58 127.926 634.75 128.148 635.92 128.389C637.623 128.741 639.325 129.134 641.027 129.571C642.728 130.007 644.41 130.481 646.072 130.992C647.214 131.343 648.346 131.712 649.469 132.097C650.099 132.314 650.726 132.536 651.351 132.763C651.351 132.763 651.35 132.763 651.351 132.763L651.354 132.764L648.558 140.446C648.656 140.482 648.755 140.518 648.853 140.554C649.856 140.923 650.851 141.306 651.837 141.704C655.757 143.288 659.533 145.1 663.156 147.121C664.18 147.693 665.192 148.281 666.191 148.885C666.192 148.886 666.192 148.886 666.192 148.886L670.424 141.891L670.43 141.895C670.436 141.898 670.442 141.902 670.448 141.905C671.011 142.246 671.57 142.592 672.126 142.942C673.139 143.581 674.14 144.236 675.128 144.905C678.03 146.873 680.823 148.971 683.499 151.191C684.42 151.955 685.328 152.733 686.221 153.526C686.717 153.965 687.209 154.41 687.696 154.858L687.705 154.866L682.17 160.882C682.171 160.883 682.172 160.884 682.173 160.885C682.291 160.994 682.409 161.103 682.527 161.213C683.267 161.9 683.996 162.598 684.714 163.307C687.701 166.254 690.494 169.377 693.08 172.656C693.805 173.576 694.515 174.508 695.207 175.452L701.798 170.616C701.798 170.616 701.798 170.616 701.798 170.616C702.192 171.153 702.582 171.695 702.967 172.239C703.654 173.213 704.326 174.197 704.981 175.193C706.903 178.111 708.684 181.121 710.318 184.21C710.875 185.263 711.415 186.325 711.938 187.397C712.228 187.992 712.513 188.589 712.793 189.19C712.795 189.194 712.797 189.198 712.799 189.202L705.388 192.652C705.682 193.284 705.969 193.919 706.25 194.557L704.42 195.364C704.145 194.738 703.863 194.116 703.574 193.497L702.73 191.683L710.124 188.241C709.616 187.2 709.091 186.168 708.55 185.145C706.946 182.112 705.197 179.158 703.311 176.292C702.674 175.325 702.022 174.369 701.354 173.422L694.778 178.248L693.595 176.636C692.916 175.71 692.221 174.796 691.509 173.894C688.974 170.681 686.237 167.619 683.31 164.73C682.606 164.036 681.891 163.352 681.166 162.678C681.05 162.57 680.933 162.462 680.816 162.354L679.344 161L684.867 154.998C683.999 154.228 683.117 153.472 682.222 152.73C679.595 150.552 676.854 148.492 674.006 146.561C673.046 145.91 672.074 145.275 671.091 144.654L666.868 151.633L665.157 150.597C664.177 150.005 663.185 149.428 662.181 148.867C658.631 146.887 654.93 145.111 651.088 143.559C650.122 143.169 649.147 142.793 648.163 142.431C648.067 142.396 647.97 142.36 647.874 142.325L645.995 141.641ZM711.886 211.089C711.606 209.951 711.306 208.82 710.986 207.695C709.84 203.659 708.445 199.708 706.815 195.863C706.63 195.427 706.442 194.991 706.25 194.557L704.42 195.364C704.608 195.789 704.792 196.216 704.974 196.644C706.572 200.413 707.939 204.286 709.062 208.241C709.376 209.345 709.67 210.455 709.945 211.571L710.424 213.513L718.344 211.559C718.6 212.691 718.839 213.827 719.059 214.969C719.705 218.32 720.192 221.713 720.514 225.14C720.622 226.294 720.712 227.452 720.783 228.613L712.634 228.956L712.718 230.955C712.723 231.084 712.728 231.213 712.733 231.342C712.772 232.358 712.795 233.376 712.802 234.396C712.831 238.461 712.607 242.56 712.119 246.675C711.984 247.811 711.829 248.948 711.654 250.086L711.349 252.062L719.41 253.305C719.214 254.441 718.998 255.578 718.763 256.714C718.418 258.386 718.031 260.058 717.603 261.729C717.175 263.4 716.709 265.051 716.207 266.683C715.866 267.792 715.508 268.893 715.134 269.984L707.47 267.194L706.785 269.073C706.75 269.169 706.715 269.266 706.68 269.362C706.318 270.346 705.942 271.321 705.552 272.287C704 276.129 702.224 279.83 700.243 283.38C699.683 284.384 699.106 285.376 698.514 286.356L697.478 288.067L704.457 292.29C703.836 293.273 703.2 294.245 702.55 295.205C700.619 298.053 698.559 300.794 696.381 303.421C695.639 304.316 694.883 305.198 694.113 306.066L688.111 300.543L686.757 302.015C686.649 302.132 686.541 302.249 686.433 302.365C685.759 303.09 685.075 303.805 684.38 304.509C681.492 307.436 678.43 310.173 675.216 312.708C674.314 313.42 673.401 314.115 672.475 314.794L670.863 315.977L675.688 322.553C674.742 323.221 673.785 323.873 672.819 324.51C669.953 326.396 666.999 328.145 663.966 329.749C662.943 330.29 661.911 330.815 660.87 331.324L657.427 323.929L655.614 324.773C654.995 325.062 654.373 325.344 653.747 325.619C653.322 325.807 652.895 325.991 652.467 326.173C648.698 327.771 644.825 329.138 640.87 330.261C639.766 330.575 638.656 330.869 637.54 331.144L635.598 331.623L637.552 339.543C636.42 339.799 635.284 340.038 634.142 340.258C630.791 340.904 627.397 341.391 623.971 341.713C622.817 341.821 621.659 341.911 620.498 341.982L620.154 333.833L618.156 333.917C618.027 333.922 617.898 333.927 617.768 333.932C616.753 333.971 615.735 333.994 614.715 334.001C610.65 334.03 606.551 333.806 602.436 333.318C601.3 333.183 600.163 333.028 599.025 332.853L597.049 332.548L595.806 340.609C594.67 340.413 593.533 340.197 592.397 339.962C590.725 339.617 589.053 339.23 587.382 338.802C585.711 338.374 584.06 337.908 582.428 337.406C581.319 337.065 580.218 336.707 579.127 336.333L581.917 328.668L580.038 327.984C579.941 327.949 579.845 327.914 579.749 327.879C578.765 327.517 577.79 327.141 576.824 326.751C572.982 325.199 569.281 323.423 565.731 321.442C564.727 320.882 563.734 320.305 562.755 319.713L561.043 318.677L556.821 325.656C555.837 325.035 554.866 324.399 553.906 323.749C551.057 321.818 548.317 319.758 545.69 317.58C544.795 316.838 543.913 316.082 543.045 315.312L548.568 309.31L547.096 307.956C546.979 307.848 546.862 307.74 546.746 307.632C546.02 306.958 545.306 306.274 544.602 305.579C541.675 302.691 538.937 299.629 536.403 296.415C535.691 295.513 534.996 294.6 534.317 293.674L533.133 292.062L526.558 296.887C525.89 295.941 525.238 294.984 524.601 294.018C522.715 291.152 520.966 288.198 519.362 285.165C518.821 284.142 518.296 283.11 517.787 282.069L525.182 278.626L524.337 276.813C524.049 276.194 523.767 275.572 523.492 274.946C523.304 274.521 523.12 274.094 522.938 273.666C521.34 269.897 519.973 266.024 518.85 262.069C518.536 260.965 518.242 259.855 517.966 258.739L517.488 256.797L509.568 258.751C509.312 257.619 509.073 256.483 508.853 255.341C508.207 251.99 507.72 248.596 507.398 245.17C507.289 244.016 507.2 242.858 507.129 241.697L515.278 241.354L515.194 239.355C515.189 239.226 515.183 239.097 515.178 238.967C515.14 237.952 515.117 236.934 515.109 235.914C515.081 231.849 515.305 227.75 515.793 223.635C515.928 222.499 516.083 221.362 516.258 220.224L516.563 218.248L508.502 217.005C508.698 215.869 508.914 214.732 509.149 213.596C509.494 211.924 509.88 210.252 510.309 208.581C510.737 206.91 511.203 205.259 511.705 203.627C512.046 202.518 512.404 201.417 512.778 200.326L520.442 203.116L521.126 201.237C521.161 201.14 521.197 201.044 521.232 200.948L519.355 200.258C519.342 200.294 519.329 200.329 519.316 200.364C519.293 200.427 519.27 200.49 519.247 200.553L511.565 197.757C511.565 197.757 511.565 197.757 511.565 197.757C511.337 198.382 511.115 199.011 510.898 199.642C510.513 200.765 510.144 201.897 509.793 203.039C509.282 204.701 508.808 206.383 508.371 208.084C507.935 209.786 507.542 211.488 507.19 213.191C506.948 214.361 506.727 215.531 506.525 216.701C506.411 217.359 506.303 218.017 506.202 218.675L514.282 219.92C514.103 221.081 513.945 222.241 513.807 223.4C513.309 227.597 513.08 231.78 513.11 235.928C513.117 236.969 513.14 238.008 513.18 239.044C513.185 239.175 513.19 239.307 513.196 239.438C513.196 239.439 513.196 239.439 513.196 239.439L505.028 239.784C505.028 239.784 505.028 239.784 505.028 239.784C505.056 240.45 505.09 241.116 505.13 241.781C505.203 242.977 505.295 244.169 505.407 245.357C505.735 248.848 506.231 252.306 506.889 255.719C507.116 256.895 507.361 258.065 507.626 259.23C507.774 259.88 507.928 260.529 508.087 261.176L516.025 259.218C516.025 259.219 516.025 259.22 516.026 259.221C516.306 260.359 516.606 261.49 516.926 262.615C518.072 266.651 519.467 270.602 521.097 274.447C521.282 274.883 521.47 275.319 521.661 275.753C521.943 276.391 522.23 277.026 522.524 277.657L515.113 281.108L515.117 281.115C515.397 281.717 515.683 282.317 515.974 282.913C516.497 283.985 517.037 285.047 517.594 286.1C519.228 289.189 521.009 292.199 522.931 295.117C523.586 296.113 524.258 297.097 524.945 298.071C525.33 298.615 525.719 299.156 526.114 299.694C526.114 299.694 526.114 299.694 526.114 299.694L532.704 294.857C533.397 295.801 534.107 296.734 534.832 297.654C537.418 300.933 540.211 304.056 543.197 307.003C543.915 307.711 544.644 308.41 545.385 309.097C545.503 309.208 545.622 309.318 545.742 309.427L540.206 315.444L540.215 315.452C540.216 315.453 540.218 315.454 540.219 315.455C540.705 315.902 541.196 316.345 541.691 316.784C542.584 317.577 543.492 318.355 544.413 319.119C547.089 321.338 549.882 323.437 552.784 325.404C553.772 326.074 554.773 326.729 555.786 327.368C556.349 327.723 556.916 328.073 557.487 328.419L561.719 321.424C561.719 321.424 561.72 321.424 561.719 321.424C562.719 322.028 563.732 322.617 564.756 323.189C568.378 325.21 572.155 327.022 576.075 328.605C577.061 329.004 578.055 329.387 579.059 329.756C579.155 329.791 579.25 329.826 579.345 329.861C579.348 329.862 579.351 329.863 579.354 329.864L576.558 337.546L576.569 337.55C577.191 337.776 577.815 337.997 578.443 338.213C579.566 338.598 580.698 338.967 581.84 339.318C583.502 339.829 585.184 340.303 586.885 340.739C588.587 341.176 590.289 341.569 591.992 341.921C593.162 342.162 594.332 342.384 595.502 342.586C596.159 342.7 596.817 342.808 597.475 342.909C597.474 342.909 597.475 342.909 597.475 342.909L598.721 334.829C599.881 335.008 601.042 335.166 602.2 335.304C606.398 335.802 610.581 336.03 614.729 336.001C615.77 335.994 616.808 335.971 617.845 335.931C617.972 335.926 618.1 335.921 618.228 335.916C618.232 335.915 618.236 335.915 618.24 335.915L618.585 344.083L618.59 344.083C618.595 344.083 618.6 344.083 618.605 344.082C619.265 344.055 619.924 344.021 620.582 343.981C621.778 343.908 622.97 343.816 624.158 343.704C627.649 343.376 631.107 342.88 634.52 342.222C635.696 341.995 636.866 341.749 638.031 341.485C638.681 341.337 639.33 341.183 639.977 341.024C639.977 341.024 639.977 341.024 639.977 341.024L638.019 333.086C638.02 333.086 638.021 333.086 638.022 333.086C639.159 332.805 640.291 332.505 641.416 332.185C645.452 331.039 649.403 329.644 653.247 328.014C653.684 327.829 654.12 327.641 654.554 327.449C655.192 327.168 655.827 326.881 656.458 326.587L659.909 333.998C659.909 333.998 659.909 333.998 659.909 333.998C660.513 333.716 661.115 333.429 661.714 333.137C662.786 332.614 663.848 332.074 664.901 331.517C667.99 329.883 671 328.102 673.918 326.18C674.914 325.525 675.898 324.853 676.872 324.166C677.416 323.781 677.957 323.392 678.495 322.998C678.494 322.998 678.495 322.997 678.495 322.998L673.658 316.406C674.602 315.714 675.535 315.004 676.455 314.279C679.734 311.693 682.857 308.9 685.804 305.913C686.512 305.196 687.211 304.466 687.898 303.726C688.008 303.608 688.117 303.49 688.226 303.371C688.227 303.371 688.228 303.37 688.228 303.369L694.245 308.904C694.244 308.905 694.245 308.904 694.245 308.904C694.696 308.414 695.143 307.919 695.585 307.42C696.378 306.527 697.156 305.619 697.92 304.698C700.139 302.022 702.238 299.229 704.205 296.327C704.875 295.339 705.53 294.338 706.169 293.325C706.524 292.762 706.874 292.194 707.22 291.623L700.225 287.392C700.225 287.392 700.225 287.391 700.225 287.392C700.83 286.392 701.418 285.379 701.99 284.355C704.011 280.732 705.823 276.956 707.406 273.036C707.805 272.05 708.188 271.055 708.557 270.052C708.593 269.954 708.629 269.856 708.665 269.757L716.347 272.553C716.574 271.928 716.797 271.299 717.014 270.668C717.399 269.545 717.768 268.413 718.119 267.271C718.63 265.609 719.104 263.927 719.54 262.226C719.977 260.524 720.37 258.822 720.722 257.119C720.963 255.949 721.185 254.779 721.387 253.609C721.5 252.955 721.607 252.301 721.708 251.647L721.71 251.635L713.63 250.39C713.809 249.229 713.967 248.069 714.105 246.91C714.603 242.713 714.831 238.53 714.802 234.382C714.795 233.341 714.772 232.302 714.732 231.266C714.727 231.138 714.722 231.01 714.717 230.882C714.716 230.878 714.716 230.874 714.716 230.87L722.884 230.526C722.884 230.526 722.884 230.526 722.884 230.526C722.856 229.86 722.822 229.193 722.782 228.529C722.709 227.333 722.617 226.141 722.505 224.952C722.177 221.462 721.681 218.004 721.023 214.59C720.796 213.415 720.55 212.245 720.286 211.08C720.138 210.43 719.984 209.781 719.825 209.134L711.887 211.092C711.887 211.091 711.887 211.09 711.886 211.089ZM593.353 152.854L592.866 150.914C592.993 150.882 593.12 150.851 593.247 150.819C598.775 149.457 604.472 148.631 610.261 148.387C610.385 148.381 610.508 148.376 610.632 148.372C615.928 148.171 621.301 148.457 626.691 149.263C626.813 149.281 626.936 149.3 627.058 149.318C629.877 149.752 632.7 150.328 635.519 151.051C638.339 151.774 641.09 152.627 643.77 153.603L643.086 155.482C640.467 154.529 637.778 153.695 635.023 152.988C632.267 152.281 629.508 151.719 626.754 151.295C626.635 151.277 626.515 151.259 626.395 151.241C621.129 150.453 615.881 150.174 610.708 150.37C610.587 150.375 610.466 150.38 610.345 150.385C604.69 150.624 599.126 151.43 593.725 152.761C593.601 152.792 593.477 152.823 593.353 152.854ZM643.426 155.607L644.119 153.731C644.065 153.711 644.011 153.691 643.957 153.671C643.895 153.648 643.832 153.626 643.77 153.603L643.086 155.482C643.199 155.524 643.313 155.565 643.426 155.607ZM691.043 199.754L692.86 198.918C692.805 198.799 692.751 198.681 692.695 198.562C690.267 193.344 687.326 188.375 683.92 183.736C683.843 183.63 683.765 183.525 683.687 183.42C680.505 179.126 676.923 175.116 672.977 171.453C672.881 171.364 672.785 171.276 672.688 171.187C668.497 167.333 663.901 163.868 658.944 160.868C658.917 160.852 658.889 160.836 658.862 160.819C658.783 160.772 658.704 160.724 658.625 160.677C654.079 157.952 649.232 155.618 644.119 153.731L643.426 155.607C648.422 157.451 653.157 159.731 657.597 162.392C657.701 162.454 657.805 162.517 657.908 162.579C662.751 165.51 667.24 168.894 671.335 172.659C671.429 172.746 671.522 172.832 671.616 172.919C675.471 176.497 678.971 180.415 682.08 184.611C682.156 184.713 682.232 184.816 682.308 184.919C685.636 189.453 688.509 194.307 690.882 199.406C690.936 199.522 690.99 199.638 691.043 199.754ZM699.848 247.89C700.654 242.499 700.94 237.127 700.739 231.831C700.734 231.707 700.729 231.583 700.724 231.46C700.48 225.671 699.654 219.974 698.292 214.446C698.26 214.319 698.229 214.192 698.197 214.065C696.885 208.844 695.093 203.774 692.86 198.918L691.043 199.754C693.225 204.498 694.975 209.451 696.257 214.552C696.288 214.676 696.319 214.8 696.35 214.924C697.681 220.325 698.487 225.889 698.726 231.544C698.729 231.612 698.732 231.681 698.734 231.749C698.737 231.802 698.739 231.854 698.741 231.907C698.937 237.08 698.657 242.328 697.87 247.594C697.852 247.714 697.834 247.834 697.816 247.953C697.392 250.707 696.829 253.466 696.123 256.222C695.416 258.977 694.582 261.666 693.629 264.285C693.587 264.398 693.546 264.512 693.504 264.625C691.66 269.621 689.38 274.356 686.719 278.796C686.656 278.9 686.594 279.004 686.531 279.107C683.601 283.95 680.217 288.439 676.452 292.534C676.365 292.628 676.278 292.721 676.192 292.815C672.614 296.67 668.696 300.17 664.5 303.279C664.436 303.327 664.371 303.375 664.306 303.423C664.268 303.451 664.23 303.479 664.192 303.507C659.658 306.835 654.804 309.708 649.705 312.081C649.589 312.135 649.473 312.189 649.357 312.242C644.613 314.424 639.659 316.175 634.559 317.456C634.469 317.479 634.379 317.501 634.289 317.523C634.255 317.532 634.221 317.54 634.187 317.549C628.786 318.88 623.221 319.686 617.567 319.925C617.491 319.928 617.415 319.931 617.339 319.934C617.294 319.936 617.249 319.938 617.204 319.94C612.031 320.136 606.783 319.856 601.516 319.069C601.397 319.051 601.277 319.033 601.158 319.015C598.404 318.591 595.645 318.028 592.889 317.322C590.134 316.615 587.444 315.781 584.826 314.828C584.713 314.786 584.599 314.745 584.486 314.703C579.49 312.859 574.755 310.579 570.315 307.918C570.211 307.855 570.107 307.793 570.004 307.73C565.161 304.8 560.671 301.416 556.577 297.651C556.483 297.564 556.389 297.477 556.296 297.391C552.441 293.813 548.941 289.895 545.831 285.699C545.755 285.597 545.68 285.494 545.604 285.391C542.276 280.857 539.403 276.003 537.03 270.904C536.976 270.788 536.922 270.672 536.869 270.556C534.687 265.812 532.936 260.858 531.655 255.758C531.624 255.634 531.593 255.51 531.562 255.386C530.231 249.985 529.425 244.42 529.186 238.766C529.181 238.645 529.176 238.524 529.171 238.403C528.975 233.23 529.254 227.982 530.042 222.715C530.06 222.596 530.078 222.476 530.096 222.357C530.52 219.603 531.082 216.844 531.789 214.088C532.496 211.333 533.33 208.643 534.283 206.025C534.325 205.912 534.366 205.798 534.408 205.685C536.252 200.689 538.532 195.954 541.193 191.514C541.255 191.41 541.318 191.306 541.38 191.203C544.311 186.36 547.695 181.871 551.46 177.776C551.547 177.682 551.633 177.588 551.72 177.495C555.298 173.64 559.216 170.14 563.412 167.031C563.514 166.954 563.617 166.879 563.72 166.803C568.254 163.475 573.108 160.602 578.207 158.229C578.323 158.175 578.439 158.121 578.555 158.068C583.299 155.886 588.252 154.135 593.353 152.854L592.866 150.914C587.645 152.226 582.575 154.017 577.719 156.251C577.6 156.305 577.481 156.36 577.363 156.416C572.145 158.844 567.176 161.785 562.537 165.191C562.431 165.268 562.326 165.346 562.221 165.424C557.927 168.606 553.917 172.188 550.254 176.134C550.165 176.23 550.077 176.326 549.988 176.422C546.134 180.613 542.669 185.21 539.669 190.167C539.605 190.273 539.541 190.379 539.478 190.486C536.753 195.032 534.419 199.879 532.532 204.992C532.489 205.108 532.446 205.225 532.404 205.341C531.428 208.02 530.574 210.772 529.852 213.592C529.129 216.411 528.553 219.234 528.119 222.053C528.1 222.175 528.082 222.297 528.064 222.42C527.258 227.81 526.972 233.182 527.173 238.479C527.177 238.603 527.182 238.726 527.188 238.85C527.432 244.639 528.258 250.336 529.62 255.864C529.642 255.952 529.664 256.039 529.685 256.127C529.695 256.166 529.705 256.206 529.715 256.245C531.027 261.466 532.818 266.536 535.052 271.392C535.106 271.511 535.161 271.629 535.217 271.748C537.645 276.966 540.586 281.934 543.992 286.574C544.069 286.68 544.147 286.785 544.225 286.89C547.407 291.184 550.989 295.194 554.935 298.856C555.031 298.945 555.127 299.034 555.223 299.123C559.414 302.977 564.011 306.442 568.968 309.442C569.074 309.506 569.18 309.57 569.287 309.633C573.833 312.358 578.68 314.692 583.793 316.579C583.836 316.595 583.879 316.611 583.922 316.627C583.995 316.653 584.069 316.68 584.142 316.707C586.821 317.683 589.573 318.536 592.393 319.259C595.212 319.982 598.035 320.558 600.854 320.992C600.976 321.01 601.098 321.029 601.221 321.047C606.611 321.853 611.983 322.139 617.28 321.938C617.404 321.933 617.527 321.929 617.651 321.923C623.44 321.679 629.137 320.853 634.665 319.491C634.792 319.459 634.919 319.428 635.046 319.396C640.267 318.084 645.337 316.293 650.193 314.059C650.312 314.005 650.43 313.95 650.549 313.894C655.767 311.466 660.735 308.525 665.375 305.119C665.412 305.092 665.448 305.066 665.485 305.039C665.554 304.988 665.622 304.937 665.691 304.886C669.985 301.704 673.995 298.122 677.657 294.176C677.701 294.128 677.745 294.081 677.789 294.034C677.834 293.985 677.879 293.936 677.924 293.888C681.778 289.697 685.243 285.1 688.243 280.143C688.307 280.037 688.371 279.931 688.434 279.824C691.158 275.278 693.493 270.431 695.38 265.318C695.423 265.202 695.465 265.085 695.508 264.969C696.484 262.289 697.337 259.538 698.06 256.718C698.783 253.899 699.359 251.076 699.793 248.257C699.811 248.135 699.83 248.013 699.848 247.89Z" fill="#050704"/>
<path fill-rule="evenodd" clip-rule="evenodd" d="M651.837 141.704C650.851 141.306 649.856 140.923 648.853 140.554C648.755 140.518 648.656 140.482 648.558 140.446L651.354 132.764L651.351 132.763C649.615 132.131 647.855 131.54 646.072 130.992C644.41 130.481 642.728 130.007 641.027 129.571C639.325 129.134 637.623 128.741 635.92 128.389C634.095 128.012 632.271 127.684 630.447 127.403C630.444 127.402 630.44 127.401 630.436 127.401L629.191 135.481C628.03 135.302 626.87 135.144 625.711 135.006C621.514 134.508 617.331 134.279 613.183 134.309C612.142 134.316 611.103 134.339 610.067 134.379C609.935 134.384 609.803 134.389 609.671 134.395L609.327 126.227C607.461 126.305 605.603 126.432 603.753 126.606C600.263 126.934 596.805 127.43 593.391 128.088C591.561 128.441 589.743 128.84 587.939 129.285L587.935 129.286L589.893 137.224C588.754 137.504 587.622 137.805 586.496 138.125C582.46 139.271 578.509 140.666 574.664 142.296C574.228 142.481 573.792 142.669 573.358 142.86C572.72 143.142 572.085 143.429 571.453 143.723L568.003 136.312C568.001 136.313 567.999 136.314 567.997 136.315C566.313 137.099 564.651 137.925 563.011 138.793C559.922 140.427 556.912 142.208 553.994 144.13C552.442 145.151 550.916 146.213 549.417 147.313L554.253 153.903C553.309 154.596 552.377 155.306 551.457 156.031C548.178 158.617 545.055 161.41 542.108 164.397C541.399 165.114 540.701 165.844 540.014 166.584C539.903 166.702 539.793 166.821 539.683 166.941L533.667 161.405C532.408 162.774 531.183 164.176 529.992 165.612C527.772 168.288 525.674 171.081 523.706 173.983C522.664 175.52 521.659 177.088 520.692 178.687L527.687 182.918C527.082 183.918 526.494 184.931 525.922 185.955C523.901 189.577 522.089 193.354 520.505 197.274C520.107 198.26 519.724 199.254 519.355 200.258C519.319 200.356 519.283 200.454 519.247 200.553L511.565 197.757C510.933 199.494 510.342 201.255 509.793 203.039C509.282 204.701 508.808 206.383 508.371 208.084C507.935 209.786 507.542 211.488 507.19 213.191C506.813 215.019 506.483 216.848 506.202 218.675L514.282 219.92C514.103 221.081 513.945 222.241 513.807 223.4C513.309 227.597 513.08 231.78 513.11 235.928C513.117 236.969 513.14 238.008 513.18 239.044C513.185 239.176 513.19 239.308 513.196 239.439L505.028 239.784C505.106 241.65 505.233 243.508 505.407 245.357C505.735 248.848 506.231 252.306 506.889 255.719C507.242 257.551 507.642 259.371 508.087 261.176L516.025 259.218C516.305 260.357 516.606 261.489 516.926 262.615C518.072 266.651 519.467 270.602 521.097 274.447C521.282 274.883 521.47 275.319 521.661 275.753C521.943 276.391 522.23 277.026 522.524 277.657L515.113 281.108C515.114 281.11 515.116 281.113 515.117 281.115C515.9 282.798 516.726 284.461 517.594 286.1C519.228 289.189 521.009 292.199 522.931 295.117C523.952 296.669 525.014 298.195 526.114 299.694L532.704 294.857C533.397 295.801 534.107 296.734 534.832 297.654C537.418 300.933 540.211 304.056 543.197 307.003C543.915 307.711 544.644 308.41 545.385 309.097C545.503 309.208 545.622 309.318 545.742 309.427L540.206 315.444C540.209 315.446 540.212 315.449 540.215 315.452C541.581 316.708 542.98 317.931 544.413 319.119C547.089 321.338 549.882 323.437 552.784 325.404C554.321 326.447 555.889 327.452 557.487 328.419L561.719 321.424C562.719 322.029 563.731 322.617 564.756 323.189C568.378 325.21 572.155 327.022 576.075 328.605C577.061 329.004 578.055 329.387 579.059 329.756C579.157 329.792 579.255 329.828 579.354 329.864L576.558 337.546C576.561 337.547 576.565 337.549 576.569 337.55C578.302 338.181 580.06 338.771 581.84 339.318C583.502 339.829 585.184 340.303 586.885 340.739C588.587 341.176 590.289 341.569 591.992 341.921C593.82 342.298 595.649 342.627 597.476 342.909L598.721 334.829C599.881 335.008 601.042 335.166 602.2 335.304C606.398 335.802 610.581 336.03 614.729 336.001C615.77 335.994 616.808 335.971 617.845 335.931C617.977 335.926 618.109 335.921 618.24 335.915L618.585 344.083L618.59 344.083C620.455 344.004 622.311 343.878 624.158 343.704C627.649 343.376 631.107 342.88 634.52 342.222C636.352 341.869 638.172 341.469 639.977 341.024L638.019 333.086C639.158 332.805 640.29 332.505 641.416 332.185C645.452 331.039 649.403 329.644 653.247 328.014C653.684 327.829 654.12 327.641 654.554 327.449C655.192 327.168 655.827 326.881 656.458 326.587L659.909 333.998C661.594 333.213 663.259 332.386 664.901 331.517C667.99 329.883 671 328.102 673.918 326.18C675.47 325.158 676.996 324.097 678.495 322.997L673.658 316.406C674.602 315.714 675.535 315.004 676.455 314.279C679.734 311.693 682.857 308.9 685.804 305.913C686.512 305.196 687.211 304.466 687.898 303.726C688.009 303.607 688.119 303.488 688.228 303.369L694.245 308.904C695.503 307.536 696.729 306.134 697.92 304.698C700.139 302.022 702.238 299.229 704.205 296.327C705.248 294.79 706.253 293.222 707.22 291.623L700.225 287.392C700.83 286.392 701.418 285.379 701.99 284.355C704.011 280.732 705.823 276.956 707.406 273.036C707.805 272.05 708.188 271.055 708.557 270.052C708.593 269.954 708.629 269.856 708.665 269.757L716.347 272.553C716.979 270.816 717.57 269.055 718.119 267.271C718.63 265.609 719.104 263.927 719.54 262.226C719.977 260.524 720.37 258.822 720.722 257.119C721.099 255.295 721.427 253.47 721.708 251.647C721.709 251.643 721.709 251.639 721.71 251.635L713.63 250.39C713.809 249.229 713.967 248.069 714.105 246.91C714.603 242.713 714.831 238.53 714.802 234.382C714.795 233.341 714.772 232.302 714.732 231.266C714.727 231.134 714.722 231.002 714.716 230.87L722.884 230.526C722.806 228.66 722.679 226.802 722.505 224.952C722.177 221.462 721.681 218.004 721.023 214.59C720.67 212.758 720.27 210.939 719.825 209.134L711.887 211.092C711.606 209.953 711.306 208.821 710.986 207.695C709.84 203.659 708.445 199.708 706.815 195.863C706.63 195.427 706.442 194.991 706.25 194.557C705.969 193.919 705.682 193.284 705.388 192.652L712.799 189.202C712.014 187.517 711.187 185.852 710.318 184.21C708.684 181.121 706.903 178.111 704.981 175.193C703.959 173.641 702.898 172.115 701.798 170.616L695.207 175.452C694.515 174.508 693.805 173.576 693.08 172.656C690.494 169.377 687.701 166.254 684.714 163.307C683.996 162.598 683.267 161.9 682.527 161.213C682.408 161.102 682.289 160.992 682.17 160.882L687.705 154.866C687.702 154.863 687.699 154.861 687.696 154.858C686.331 153.602 684.931 152.379 683.499 151.191C680.823 148.971 678.03 146.873 675.128 144.905C673.593 143.865 672.026 142.86 670.43 141.895C670.428 141.893 670.426 141.892 670.424 141.891L666.192 148.886C665.193 148.281 664.18 147.693 663.156 147.121C659.533 145.1 655.757 143.288 651.837 141.704ZM657.597 162.392C653.157 159.731 648.422 157.451 643.426 155.607C643.313 155.565 643.199 155.524 643.086 155.482C640.467 154.529 637.778 153.695 635.023 152.988C632.267 152.281 629.508 151.719 626.754 151.295C626.635 151.277 626.515 151.259 626.395 151.241C621.129 150.453 615.881 150.174 610.708 150.37C610.587 150.375 610.466 150.38 610.345 150.385C604.69 150.624 599.126 151.43 593.725 152.761C593.601 152.792 593.477 152.823 593.353 152.854C588.252 154.135 583.299 155.886 578.555 158.068C578.439 158.121 578.323 158.175 578.207 158.229C573.108 160.602 568.254 163.475 563.72 166.803C563.617 166.879 563.514 166.954 563.412 167.031C559.216 170.14 555.298 173.64 551.72 177.495C551.633 177.588 551.547 177.682 551.46 177.776C547.695 181.871 544.311 186.36 541.38 191.203C541.318 191.306 541.255 191.41 541.193 191.514C538.532 195.954 536.252 200.689 534.408 205.685C534.366 205.798 534.325 205.912 534.283 206.025C533.33 208.643 532.496 211.333 531.789 214.088C531.082 216.844 530.52 219.603 530.096 222.357C530.078 222.476 530.06 222.596 530.042 222.715C529.254 227.982 528.975 233.23 529.171 238.403C529.176 238.524 529.181 238.645 529.186 238.766C529.425 244.42 530.231 249.985 531.562 255.386C531.593 255.51 531.624 255.634 531.655 255.758C532.936 260.858 534.687 265.812 536.869 270.556C536.922 270.672 536.976 270.788 537.03 270.904C539.403 276.003 542.276 280.857 545.604 285.391C545.68 285.494 545.755 285.597 545.831 285.699C548.941 289.895 552.441 293.813 556.296 297.391C556.389 297.477 556.483 297.564 556.577 297.651C560.671 301.416 565.161 304.8 570.004 307.73C570.107 307.793 570.211 307.855 570.315 307.918C574.755 310.579 579.49 312.859 584.486 314.703C584.599 314.745 584.713 314.786 584.826 314.828C587.444 315.781 590.134 316.615 592.889 317.322C595.645 318.028 598.404 318.591 601.158 319.015C601.277 319.033 601.397 319.051 601.516 319.069C606.783 319.856 612.031 320.136 617.204 319.94C617.325 319.935 617.446 319.93 617.567 319.925C623.221 319.686 628.786 318.88 634.187 317.549C634.311 317.518 634.435 317.487 634.559 317.456C639.659 316.175 644.613 314.424 649.357 312.242C649.473 312.189 649.589 312.135 649.705 312.081C654.804 309.708 659.658 306.835 664.192 303.507C664.295 303.431 664.398 303.355 664.5 303.279C668.696 300.17 672.614 296.67 676.192 292.815C676.278 292.721 676.365 292.628 676.452 292.534C680.217 288.439 683.601 283.95 686.531 279.107C686.594 279.004 686.656 278.9 686.719 278.796C689.38 274.356 691.66 269.621 693.504 264.625C693.546 264.512 693.587 264.398 693.629 264.285C694.582 261.666 695.416 258.977 696.123 256.222C696.829 253.466 697.392 250.707 697.816 247.953C697.834 247.834 697.852 247.714 697.87 247.594C698.657 242.328 698.937 237.08 698.741 231.907C698.736 231.786 698.731 231.665 698.726 231.544C698.487 225.889 697.681 220.325 696.35 214.924C696.319 214.8 696.288 214.676 696.257 214.552C694.975 209.451 693.225 204.498 691.043 199.754C690.99 199.638 690.936 199.522 690.882 199.406C688.509 194.307 685.636 189.453 682.308 184.919C682.232 184.816 682.156 184.713 682.08 184.611C678.971 180.415 675.471 176.497 671.616 172.919C671.522 172.832 671.429 172.746 671.335 172.659C667.24 168.894 662.751 165.51 657.908 162.579C657.805 162.517 657.701 162.454 657.597 162.392Z" fill="#050704"/>
<circle cx="614.737" cy="235.155" r="36.8644" fill="#050704"/>
</svg>
